<svg width="21" height="22" viewBox="0 0 21 22" version="1.1" xmlns="http://www.w3.org/2000/svg" xmlns:xlink="http://www.w3.org/1999/xlink">
<title>Icon : home</title>
<desc>Created using Figma</desc>
<g id="Canvas" transform="translate(8433 4954)">
<g id="Icon : home">
<g id="Stroke 421">
<use xlink:href="#path0_stroke" transform="translate(-8432 -4953)" fill="#FFFFFF"/>
</g>
<g id="Rectangle">
<use xlink:href="#path1_fill" transform="translate(-8429 -4945)" fill="#FFFFFF"/>
</g>
<g id="Line">
<use xlink:href="#path2_stroke" transform="translate(-8429 -4950)" fill="#FFFFFF"/>
</g>
<g id="Line Copy">
<use xlink:href="#path3_stroke" transform="translate(-8422 -4950)" fill="#FFFFFF"/>
</g>
</g>
</g>
<defs>
<path id="path0_stroke" d="M 18.5476 19C 17.9953 19 17.5476 19.4477 17.5476 20C 17.5476 20.5523 17.9953 21 18.5476 21L 18.5476 19ZM 18.5476 19L 0.452381 19L 0.452381 21L 18.5476 21L 18.5476 19ZM 0.452381 19C 0.805279 19 0.99599 19.2061 1.02436 19.238C 1.06668 19.2857 1.06837 19.3059 1.05066 19.2649C 1.02869 19.2172 1.02389 19.2006 1.01107 19.1398C 0.99738 19.0841 1.00206 19.062 1 19.079L -1 19.079C -1 19.401 -0.91131 19.7662 -0.785569 20.0575C -0.720404 20.2043 -0.589335 20.425 -0.471659 20.5654C -0.335062 20.7194 -0.0253742 21 0.452381 21L 0.452381 19ZM 1 19.079L 1 0.260938L -1 0.260938L -1 19.079L 1 19.079ZM 1 0.260938C 1 0.26374 1.00313 0.411013 0.898343 0.589823C 0.768087 0.812102 0.565374 0.928907 0.403805 0.974441C 0.287486 1.00722 0.204414 0.998889 0.248842 1.00011C 0.280036 1.00071 0.353266 1.00568 0.452381 1.00635L 0.452381 -0.993648C 0.426639 -0.992975 0.380892 -0.996749 0.303855 -0.999132C 0.221678 -1.001 0.0224097 -0.988126 -0.13871 -0.950573C -0.382159 -0.881963 -0.651146 -0.721797 -0.827206 -0.421355C -0.977793 -0.164383 -1 0.0958542 -1 0.260938L 1 0.260938ZM 0.452381 1.00635L 18.5476 1.00635L 18.5476 -0.993648L 0.452381 -0.993648L 0.452381 1.00635ZM 18.5476 1.00635C 18.6467 1.00568 18.72 1.00071 18.7512 1.00011C 18.7956 0.998889 18.7125 1.00722 18.5962 0.974441C 18.4346 0.928907 18.2319 0.812102 18.1017 0.589823C 17.9969 0.411014 18 0.26374 18 0.260938L 20 0.260938C 20 0.0958541 19.9778 -0.164383 19.8272 -0.421355C 19.6511 -0.721797 19.3822 -0.881963 19.1387 -0.950573C 18.9776 -0.988126 18.7783 -1.001 18.6961 -0.999132C 18.6191 -0.996749 18.5734 -0.992975 18.5476 -0.993648L 18.5476 1.00635ZM 18 0.260938L 18 19.079L 20 19.079L 20 0.260938L 18 0.260938ZM 18 19.079C 17.9979 19.062 18.0026 19.0841 17.9889 19.1398C 17.9761 19.2006 17.9713 19.2172 17.9493 19.2649C 17.9316 19.3059 17.9333 19.2857 17.9756 19.238C 18.004 19.2061 18.1947 19 18.5476 19L 18.5476 21C 19.0254 21 19.3351 20.7194 19.4717 20.5654C 19.5893 20.425 19.7204 20.2043 19.7856 20.0575C 19.9113 19.7662 20 19.401 20 19.079L 18 19.079Z"/>
<path id="path1_fill" fill-rule="evenodd" d="M 0 0L 13 0L 13 9L 0 9L 0 0Z"/>
<path id="path2_stroke" d="M 0.5 0L -0.5 0L -0.5 2L 0.5 2L 0.5 0ZM 3.5 2L 4.5 2L 4.5 0L 3.5 0L 3.5 2ZM 0.5 2L 3.5 2L 3.5 0L 0.5 0L 0.5 2Z"/>
<path id="path3_stroke" d="M 0.5 0L -0.5 0L -0.5 2L 0.5 2L 0.5 0ZM 7 2L 8 2L 8 0L 7 0L 7 2ZM 0.5 2L 7 2L 7 0L 0.5 0L 0.5 2Z"/>
</defs>
</svg>
