<?xml version="1.0" encoding="utf-8"?>
<!-- Generator: Adobe Illustrator 21.1.0, SVG Export Plug-In . SVG Version: 6.00 Build 0)  -->
<svg version="1.1" id="Layer_1" xmlns="http://www.w3.org/2000/svg" xmlns:xlink="http://www.w3.org/1999/xlink" x="0px" y="0px"
	 viewBox="0 0 48 48" style="enable-background:new 0 0 48 48;" xml:space="preserve">
<style type="text/css">
	.st0{fill:#FFFFFF;}
</style>
<path id="ico-notification" class="st0" d="M39.7,35.5l-3.5-5.8v-8.1c0-6.3-4.8-11.4-10.9-12V8.3c0-0.7-0.5-1.2-1.2-1.2
	s-1.2,0.5-1.2,1.2v2.4c0,0.7,0.5,1.2,1.2,1.2c5.3,0,9.7,4.4,9.7,9.7v8.5c0,0.2,0,0.5,0.1,0.6l2.5,4.3H11.7l2.5-4.3
	c0.1-0.1,0.1-0.4,0.1-0.6v-8.5c0-3.8,2.2-7.2,5.6-8.7c0.6-0.2,0.8-1,0.6-1.6c-0.4-0.7-1.1-1-1.7-0.6c-4.2,1.9-6.9,6.3-6.9,10.9v8.1
	l-3.5,5.8c-0.2,0.4-0.2,0.9,0,1.2s0.6,0.6,1.1,0.6h9.8c0.5,2.1,2.4,3.6,4.7,3.6s4.1-1.6,4.7-3.6h9.8c0.5,0,0.8-0.2,1.1-0.6
	C39.9,36.4,39.9,35.9,39.7,35.5z M24.1,38.6c-0.8,0-1.7-0.5-2.1-1.2h4.1C25.8,38.1,25,38.6,24.1,38.6z"/>
</svg>
