<?xml version="1.0" encoding="utf-8"?>
<!-- Generator: Adobe Illustrator 21.1.0, SVG Export Plug-In . SVG Version: 6.00 Build 0)  -->
<svg version="1.1" id="Layer_1" xmlns="http://www.w3.org/2000/svg" xmlns:xlink="http://www.w3.org/1999/xlink" x="0px" y="0px"
	 viewBox="0 0 48 48" style="enable-background:new 0 0 48 48;" xml:space="preserve">
<style type="text/css">
	.st0{fill:#FFFFFF;}
</style>
<path id="path0_fill" class="st0" d="M24,38c-3.7,0-7.3-1.5-9.9-4.1C9.8,29.6,8.8,23,11.6,17.6c0.3-0.5,0.9-0.7,1.3-0.4
	c0.4,0.3,0.7,0.8,0.4,1.3c-2.4,4.7-1.5,10.3,2.2,14c2.3,2.3,5.3,3.5,8.5,3.5c3.2,0,6.2-1.2,8.5-3.5c2.3-2.3,3.5-5.3,3.5-8.5
	s-1.2-6.2-3.5-8.5C30.2,13.2,27.2,12,24,12c-3.2,0-6.2,1.2-8.5,3.5c-0.4,0.4-1,0.4-1.4,0s-0.4-1,0-1.4c2.7-2.6,6.2-4.1,9.9-4.1
	c3.7,0,7.3,1.5,9.9,4.1c2.7,2.6,4.1,6.2,4.1,9.9s-1.5,7.3-4.1,9.9C31.3,36.5,27.8,38,24,38z M24,28c-1.1,0-2.1-0.4-2.8-1.2
	c-1.6-1.6-1.6-4.1,0-5.7c1.3-1.3,7.3-3.6,8.5-4.1c0.3-0.1,0.7,0,1,0.3c0.3,0.3,0.4,0.7,0.2,1.1c-0.5,1.2-2.8,7.2-4.1,8.5
	C26.1,27.6,25.1,28,24,28z M28.2,19.8c-2.5,1-5.1,2.2-5.6,2.8c-0.8,0.8-0.8,2,0,2.8c0.8,0.8,2.1,0.8,2.8,0
	C26,24.9,27.2,22.3,28.2,19.8z"/>
</svg>
