<svg width="22" height="20" viewBox="0 0 22 20" version="1.1" xmlns="http://www.w3.org/2000/svg" xmlns:xlink="http://www.w3.org/1999/xlink">
<title>Icon: Graph_bar</title>
<desc>Created using Figma</desc>
<g id="Canvas" transform="translate(8906 4665)">
<g id="Icon: Graph_bar">
<g id="Vector">
<use xlink:href="#path0_fill" transform="translate(-8888 -4665)" fill="#FFFFFF"/>
</g>
<g id="Vector">
<use xlink:href="#path1_fill" transform="translate(-8894 -4660.41)" fill="#FFFFFF"/>
</g>
<g id="Vector">
<use xlink:href="#path2_fill" transform="translate(-8900 -4662.52)" fill="#FFFFFF"/>
</g>
<g id="Vector">
<use xlink:href="#path3_fill" transform="translate(-8906 -4646)" fill="#FFFFFF"/>
</g>
<g id="Vector">
<use xlink:href="#path4_fill" transform="translate(-8906 -4658.73)" fill="#FFFFFF"/>
</g>
</g>
</g>
<defs>
<path id="path0_fill" d="M 0.515995 17.8378L 3.30237 17.8378C 3.56037 17.8378 3.81837 17.5676 3.81837 17.2973L 3.81837 0.54054C 3.81837 0.216216 3.56037 0 3.30237 0L 0.515995 0C 0.257998 0 -3.93674e-07 0.216216 -3.93674e-07 0.54054L -3.93674e-07 17.2973C -3.93674e-07 17.5676 0.206398 17.8378 0.515995 17.8378Z"/>
<path id="path1_fill" d="M 0.464397 13.2432L 3.40557 13.2432C 3.66357 13.2432 3.86997 13.027 3.86997 12.7568L 3.86997 0.486486C 3.86997 0.216216 3.66357 0 3.40557 0L 0.464397 0C 0.206399 0 -3.93674e-07 0.216216 -3.93674e-07 0.486486L -3.93674e-07 12.7568C -3.93674e-07 13.027 0.206399 13.2432 0.464397 13.2432Z"/>
<path id="path2_fill" d="M 0.464396 15.3583L 3.35397 15.3583C 3.61197 15.3583 3.81837 15.1421 3.81837 14.8718L 3.81837 0.493444C 3.81837 0.223173 3.61197 0.00695721 3.35397 0.00695721L 0.464396 0.00695721C 0.206398 -0.0470968 -1.96837e-07 0.223173 -1.96837e-07 0.493444L -1.96837e-07 14.8718C -1.96837e-07 15.1421 0.206398 15.3583 0.464396 15.3583Z"/>
<path id="path3_fill" d="M 21.3567 1L 0.643275 1C 0.321637 1 0 0.8 0 0.5C 0 0.25 0.25731 0 0.643275 0L 21.3567 0C 21.6784 0 22 0.2 22 0.5C 22 0.75 21.6784 1 21.3567 1Z"/>
<path id="path4_fill" d="M 0.412797 11.5676L 3.40557 11.5676C 3.61197 11.5676 3.81837 11.3513 3.81837 11.1351L 3.81837 0.432432C 3.81837 0.216216 3.61197 2.062e-07 3.40557 2.062e-07L 0.412797 2.062e-07C 0.206398 2.062e-07 0 0.216216 0 0.432432L 0 11.1351C 0 11.3513 0.206398 11.5676 0.412797 11.5676Z"/>
</defs>
</svg>
