<?xml version="1.0" encoding="utf-8"?>
<!-- Generator: Adobe Illustrator 22.0.0, SVG Export Plug-In . SVG Version: 6.00 Build 0)  -->
<svg version="1.1" id="Layer_1" xmlns="http://www.w3.org/2000/svg" xmlns:xlink="http://www.w3.org/1999/xlink" x="0px" y="0px"
	 viewBox="0 0 44 44" style="enable-background:new 0 0 44 44;" xml:space="preserve">
<style type="text/css">
	.st0{fill:#FFFFFF;}
</style>
<path id="path0_fill" class="st0" d="M29.5,29.8h2.8c0.3,0,0.5-0.3,0.5-0.5V12.5c0-0.3-0.3-0.5-0.5-0.5h-2.8c-0.3,0-0.5,0.2-0.5,0.5
	v16.8C29,29.6,29.2,29.8,29.5,29.8z"/>
<path id="path2_fill" class="st0" d="M17.5,29.8h2.9c0.3,0,0.5-0.2,0.5-0.5V15c0-0.3-0.2-0.5-0.5-0.5h-2.9C17.2,14.4,17,14.7,17,15
	v14.4C17,29.6,17.2,29.8,17.5,29.8z"/>
<path id="path3_fill" class="st0" d="M32.4,32H11.6c-0.3,0-0.6-0.2-0.6-0.5c0-0.3,0.3-0.5,0.6-0.5h20.7c0.3,0,0.6,0.2,0.6,0.5
	C33,31.8,32.7,32,32.4,32z"/>
<path id="path4_fill" class="st0" d="M11.4,29.8h3c0.2,0,0.4-0.2,0.4-0.4V18.7c0-0.2-0.2-0.4-0.4-0.4h-3c-0.2,0-0.4,0.2-0.4,0.4
	v10.7C11,29.6,11.2,29.8,11.4,29.8z"/>
<path id="path1_fill" class="st0" d="M23.5,29.8h2.9c0.3,0,0.5-0.2,0.5-0.5V17.1c0-0.3-0.2-0.5-0.5-0.5h-2.9c-0.3,0-0.5,0.2-0.5,0.5
	v12.3C23,29.6,23.2,29.8,23.5,29.8z"/>
</svg>
