<?xml version="1.0" encoding="utf-8"?>
<!-- Generator: Adobe Illustrator 22.0.0, SVG Export Plug-In . SVG Version: 6.00 Build 0)  -->
<svg version="1.1" id="Layer_1" xmlns="http://www.w3.org/2000/svg" xmlns:xlink="http://www.w3.org/1999/xlink" x="0px" y="0px"
	 viewBox="0 0 44 44" style="enable-background:new 0 0 44 44;" xml:space="preserve">
<style type="text/css">
	.st0{fill:#FFFFFF;}
</style>
<title>Icon: Graph_bar</title>
<desc>Created using Figma</desc>
<g id="Canvas" transform="translate(8906 4665)">
	<g id="Icon:_Graph_x5F_bar">
		<g id="Vector">
			<g transform="translate(-8888 -4665)">
				<path id="path0_fill" class="st0" d="M-8876.5-4635.2h2.8c0.3,0,0.5-0.3,0.5-0.5v-16.8c0-0.3-0.3-0.5-0.5-0.5h-2.8
					c-0.3,0-0.5,0.2-0.5,0.5v16.8C-8877-4635.4-8876.8-4635.2-8876.5-4635.2z"/>
			</g>
		</g>
		<g id="Vector_1_">
			<g transform="translate(-8894 -4660.41)">
				<path id="path1_fill" class="st0" d="M-8882.5-4635.2h2.9c0.3,0,0.5-0.2,0.5-0.5v-12.3c0-0.3-0.2-0.5-0.5-0.5h-2.9
					c-0.3,0-0.5,0.2-0.5,0.5v12.3C-8883-4635.4-8882.8-4635.2-8882.5-4635.2z"/>
			</g>
		</g>
		<g id="Vector_2_">
			<g transform="translate(-8900 -4662.52)">
				<path id="path2_fill" class="st0" d="M-8888.5-4635.2h2.9c0.3,0,0.5-0.2,0.5-0.5v-14.4c0-0.3-0.2-0.5-0.5-0.5h-2.9
					c-0.3-0.1-0.5,0.2-0.5,0.5v14.4C-8889-4635.4-8888.8-4635.2-8888.5-4635.2z"/>
			</g>
		</g>
		<g id="Vector_3_">
			<g transform="translate(-8906 -4646)">
				<path id="path3_fill" class="st0" d="M-8873.6-4633h-20.7c-0.3,0-0.6-0.2-0.6-0.5c0-0.3,0.3-0.5,0.6-0.5h20.7
					c0.3,0,0.6,0.2,0.6,0.5C-8873-4633.3-8873.3-4633-8873.6-4633z"/>
			</g>
		</g>
		<g id="Vector_4_">
			<g transform="translate(-8906 -4658.73)">
				<path id="path4_fill" class="st0" d="M-8894.6-4635.2h3c0.2,0,0.4-0.2,0.4-0.4v-10.7c0-0.2-0.2-0.4-0.4-0.4h-3
					c-0.2,0-0.4,0.2-0.4,0.4v10.7C-8895-4635.4-8894.8-4635.2-8894.6-4635.2z"/>
			</g>
		</g>
	</g>
</g>
</svg>
