<?xml version="1.0" encoding="utf-8"?>
<!-- Generator: Adobe Illustrator 22.0.0, SVG Export Plug-In . SVG Version: 6.00 Build 0)  -->
<svg version="1.1" id="Layer_1" xmlns="http://www.w3.org/2000/svg" xmlns:xlink="http://www.w3.org/1999/xlink" x="0px" y="0px"
	 viewBox="0 0 44 44" style="enable-background:new 0 0 44 44;" xml:space="preserve">
<style type="text/css">
	.st0{fill:#FFFFFF;}
</style>
<title>Icon : home</title>
<desc>Created using Figma</desc>
<g id="Canvas" transform="translate(8433 4954)">
	<g id="Icon_:_home">
		<g id="Stroke_421">
			<g transform="translate(-8432 -4953)">
				<path id="path0_stroke" class="st0" d="M-8402-4923c-0.6,0-1,0.4-1,1s0.4,1,1,1V-4923z M-8402-4923h-18.1v2h18.1V-4923z
					 M-8420-4923c0.4,0,0.5,0.2,0.6,0.2c0,0,0,0.1,0,0c0,0,0-0.1,0-0.1c0-0.1,0-0.1,0-0.1h-2c0,0.3,0.1,0.7,0.2,1
					c0.1,0.1,0.2,0.4,0.3,0.5c0.1,0.2,0.4,0.4,0.9,0.4V-4923z M-8419.5-4922.9v-18.8h-2v18.8H-8419.5z M-8419.5-4941.7
					c0,0,0,0.2-0.1,0.3c-0.1,0.2-0.3,0.3-0.5,0.4c-0.1,0-0.2,0-0.2,0c0,0,0.1,0,0.2,0v-2c0,0-0.1,0-0.1,0c-0.1,0-0.3,0-0.4,0
					c-0.2,0.1-0.5,0.2-0.7,0.5c-0.2,0.3-0.2,0.5-0.2,0.7H-8419.5z M-8420-4941h18.1v-2h-18.1V-4941z M-8402-4941c0.1,0,0.2,0,0.2,0
					C-8401.7-4941-8401.8-4941-8402-4941c-0.1-0.1-0.3-0.2-0.4-0.4c-0.1-0.2-0.1-0.3-0.1-0.3h2c0-0.2,0-0.4-0.2-0.7
					c-0.2-0.3-0.4-0.5-0.7-0.5c-0.2,0-0.4-0.1-0.4,0c-0.1,0-0.1,0-0.1,0V-4941z M-8402.5-4941.7v18.8h2v-18.8H-8402.5z
					 M-8402.5-4922.9C-8402.5-4922.9-8402.5-4922.9-8402.5-4922.9c0,0.1,0,0.1-0.1,0.2c0,0,0,0,0,0c0,0,0.2-0.2,0.6-0.2v2
					c0.5,0,0.8-0.3,0.9-0.4c0.1-0.1,0.2-0.4,0.3-0.5c0.1-0.3,0.2-0.7,0.2-1H-8402.5z"/>
			</g>
		</g>
		<g id="Rectangle">
			<g transform="translate(-8429 -4945)">
				<path id="path1_fill" class="st0" d="M-8417.5-4934h13v9h-13V-4934z"/>
			</g>
		</g>
		<g id="Line">
			<g transform="translate(-8429 -4950)">
				<path id="path2_stroke" class="st0" d="M-8417-4939h-1v2h1V-4939z M-8414-4937h1v-2h-1V-4937z M-8417-4937h3v-2h-3V-4937z"/>
			</g>
		</g>
		<g id="Line_Copy">
			<g transform="translate(-8422 -4950)">
				<path id="path3_stroke" class="st0" d="M-8410-4939h-1v2h1V-4939z M-8403.5-4937h1v-2h-1V-4937z M-8410-4937h6.5v-2h-6.5V-4937z
					"/>
			</g>
		</g>
	</g>
</g>
</svg>
