<svg width="69" height="52" viewBox="0 0 69 52" version="1.1" xmlns="http://www.w3.org/2000/svg" xmlns:xlink="http://www.w3.org/1999/xlink">
<title>Icon : list-search</title>
<desc>Created using Figma</desc>
<g id="Canvas" transform="translate(7681 -6808)">
<g id="Icon : list-search">
<g id="Stroke 3">
<use xlink:href="#path0_stroke" transform="translate(-7645.49 6845)" fill="#E66B48"/>
</g>
<g id="Stroke 5">
<use xlink:href="#path1_stroke" transform="translate(-7680 6809)" fill="#E66B48"/>
</g>
<g id="Stroke 174">
<use xlink:href="#path2_stroke" transform="translate(-7631.27 6814)" fill="#E66B48"/>
</g>
<g id="Stroke 174 Copy">
<use xlink:href="#path2_stroke" transform="translate(-7631.27 6824)" fill="#E66B48"/>
</g>
<g id="Stroke 174 Copy 2">
<use xlink:href="#path3_stroke" transform="translate(-7631.27 6834)" fill="#E66B48"/>
</g>
</g>
</g>
<defs>
<path id="path0_stroke" d="M 0.70177 -0.712403C 0.308321 -1.09998 -0.324826 -1.09522 -0.712403 -0.70177C -1.09998 -0.308321 -1.09522 0.324826 -0.70177 0.712403L 0.70177 -0.712403ZM 13.5103 14.7124C 13.9038 15.1 14.5369 15.0952 14.9245 14.7018C 15.3121 14.3083 15.3073 13.6752 14.9139 13.2876L 13.5103 14.7124ZM -0.70177 0.712403L 13.5103 14.7124L 14.9139 13.2876L 0.70177 -0.712403L -0.70177 0.712403Z"/>
<path id="path1_stroke" d="M 39.6061 20C 39.6061 30.4796 30.9776 39 20.3024 39L 20.3024 41C 32.0536 41 41.6061 31.6125 41.6061 20L 39.6061 20ZM 20.3024 39C 9.6273 39 1 30.4797 1 20L -1 20C -1 31.6125 8.55113 41 20.3024 41L 20.3024 39ZM 1 20C 1 9.52028 9.6273 1 20.3024 1L 20.3024 -1C 8.55113 -1 -1 8.38753 -1 20L 1 20ZM 20.3024 1C 30.9776 1 39.6061 9.52036 39.6061 20L 41.6061 20C 41.6061 8.38745 32.0536 -1 20.3024 -1L 20.3024 1Z"/>
<path id="path2_stroke" d="M 0 1.5C -0.552285 1.5 -1 1.94772 -1 2.5C -1 3.05228 -0.552285 3.5 0 3.5L 0 1.5ZM 18.2727 3.5C 18.825 3.5 19.2727 3.05228 19.2727 2.5C 19.2727 1.94772 18.825 1.5 18.2727 1.5L 18.2727 3.5ZM 0 3.5L 18.2727 3.5L 18.2727 1.5L 0 1.5L 0 3.5Z"/>
<path id="path3_stroke" d="M 0 1.5C -0.552285 1.5 -1 1.94772 -1 2.5C -1 3.05229 -0.552285 3.5 0 3.5L 0 1.5ZM 18.2727 3.5C 18.825 3.5 19.2727 3.05229 19.2727 2.5C 19.2727 1.94772 18.825 1.5 18.2727 1.5L 18.2727 3.5ZM 0 3.5L 18.2727 3.5L 18.2727 1.5L 0 1.5L 0 3.5Z"/>
</defs>
</svg>
