<?xml version="1.0" encoding="utf-8"?>
<!-- Generator: Adobe Illustrator 22.0.0, SVG Export Plug-In . SVG Version: 6.00 Build 0)  -->
<svg version="1.1" id="Layer_1" xmlns="http://www.w3.org/2000/svg" xmlns:xlink="http://www.w3.org/1999/xlink" x="0px" y="0px"
	 viewBox="0 0 44 44" style="enable-background:new 0 0 44 44;" xml:space="preserve">
<style type="text/css">
	.st0{fill:#FFFFFF;}
</style>
<path id="path0_stroke" class="st0" d="M31,31c-0.6,0-1,0.4-1,1s0.4,1,1,1V31z M31,31H13v2H31V31z M13,31c0.4,0,0.5,0.2,0.6,0.2
	c0,0,0,0.1,0,0c0,0,0-0.1,0-0.1c0-0.1,0-0.1,0-0.1h-2c0,0.3,0.1,0.7,0.2,1c0.1,0.1,0.2,0.4,0.3,0.5c0.1,0.2,0.4,0.4,0.9,0.4V31z
	 M13.5,31.1V12.3h-2v18.8H13.5z M13.5,12.3c0,0,0,0.2-0.1,0.3c-0.1,0.2-0.3,0.3-0.5,0.4c-0.1,0-0.2,0-0.2,0c0,0,0.1,0,0.2,0v-2
	c0,0-0.1,0-0.1,0c-0.1,0-0.3,0-0.4,0c-0.2,0.1-0.5,0.2-0.7,0.5c-0.2,0.3-0.2,0.5-0.2,0.7H13.5z M13,13H31v-2H13V13z M31,13
	c0.1,0,0.2,0,0.2,0C31.3,13,31.2,13,31,13c-0.1-0.1-0.3-0.2-0.4-0.4c-0.1-0.2-0.1-0.3-0.1-0.3h2c0-0.2,0-0.4-0.2-0.7
	c-0.2-0.3-0.4-0.5-0.7-0.5c-0.2,0-0.4-0.1-0.4,0c-0.1,0-0.1,0-0.1,0V13z M30.5,12.3v18.8h2V12.3H30.5z M30.5,31.1
	C30.5,31.1,30.5,31.1,30.5,31.1c0,0.1,0,0.1-0.1,0.2c0,0,0,0,0,0c0,0,0.2-0.2,0.6-0.2v2c0.5,0,0.8-0.3,0.9-0.4
	c0.1-0.1,0.2-0.4,0.3-0.5c0.1-0.3,0.2-0.7,0.2-1H30.5z"/>
<path id="path1_fill" class="st0" d="M15.5,20h13v9h-13V20z"/>
<path id="path2_stroke" class="st0" d="M16,15h-1v2h1V15z M19,17h1v-2h-1V17z M16,17h3v-2h-3V17z"/>
<path id="path3_stroke" class="st0" d="M23,15h-1v2h1V15z M29.5,17h1v-2h-1V17z M23,17h6.5v-2H23V17z"/>
</svg>
