<?xml version="1.0" encoding="utf-8"?>
<!-- Generator: Adobe Illustrator 21.1.0, SVG Export Plug-In . SVG Version: 6.00 Build 0)  -->
<svg version="1.1" id="Layer_1" xmlns="http://www.w3.org/2000/svg" xmlns:xlink="http://www.w3.org/1999/xlink" x="0px" y="0px"
	 viewBox="0 0 48 48" style="enable-background:new 0 0 48 48;" xml:space="preserve">
<style type="text/css">
	.st0{fill:#FFFFFF;}
</style>
<path id="path0_fill" class="st0" d="M37.7,23.5l-13-13c-0.4-0.4-1-0.4-1.4,0l-13,13c-0.4,0.4-0.4,1,0,1.4c0.4,0.4,1,0.4,1.4,0
	L24,12.6l8,8c0,0,0,0,0,0.1v15H16v-10c0-0.6-0.4-1-1-1c-0.6,0-1,0.4-1,1v11c0,0.6,0.4,1,1,1h18c0.6,0,1-0.4,1-1V22.6l2.3,2.3
	c0.2,0.2,0.5,0.3,0.7,0.3s0.5-0.1,0.7-0.3C38.1,24.5,38.1,23.9,37.7,23.5z"/>
</svg>
