<svg width="30" height="30" viewBox="0 0 30 30" version="1.1" xmlns="http://www.w3.org/2000/svg" xmlns:xlink="http://www.w3.org/1999/xlink">
<title>Icon : Plus</title>
<desc>Created using Figma</desc>
<g id="Canvas" transform="translate(8518 4898)">
<g id="Icon : Plus">
<g id="Stroke 23">
<use xlink:href="#path0_stroke" transform="matrix(0.707107 0.707107 -0.707107 0.707107 -8503 -4895.12)" fill="#FFFFFF"/>
</g>
<g id="Stroke 25">
<use xlink:href="#path1_stroke" transform="matrix(0.707107 0.707107 -0.707107 0.707107 -8503 -4895.12)" fill="#FFFFFF"/>
</g>
</g>
</g>
<defs>
<path id="path0_stroke" d="M 0.707107 -0.707107C 0.316583 -1.09763 -0.316583 -1.09763 -0.707107 -0.707107C -1.09763 -0.316583 -1.09763 0.316583 -0.707107 0.707107L 0.707107 -0.707107ZM 16.4357 17.85C 16.8263 18.2405 17.4594 18.2405 17.85 17.85C 18.2405 17.4594 18.2405 16.8263 17.85 16.4357L 16.4357 17.85ZM -0.707107 0.707107L 16.4357 17.85L 17.85 16.4357L 0.707107 -0.707107L -0.707107 0.707107Z"/>
<path id="path1_stroke" d="M 17.85 0.707107C 18.2405 0.316583 18.2405 -0.316583 17.85 -0.707107C 17.4594 -1.09763 16.8263 -1.09763 16.4357 -0.707107L 17.85 0.707107ZM -0.707107 16.4357C -1.09763 16.8263 -1.09763 17.4594 -0.707107 17.85C -0.316583 18.2405 0.316583 18.2405 0.707107 17.85L -0.707107 16.4357ZM 16.4357 -0.707107L -0.707107 16.4357L 0.707107 17.85L 17.85 0.707107L 16.4357 -0.707107Z"/>
</defs>
</svg>
