<?xml version="1.0" encoding="utf-8"?>
<!-- Generator: Adobe Illustrator 22.0.0, SVG Export Plug-In . SVG Version: 6.00 Build 0)  -->
<svg version="1.1" id="Layer_1" xmlns="http://www.w3.org/2000/svg" xmlns:xlink="http://www.w3.org/1999/xlink" x="0px" y="0px"
	 viewBox="0 0 44 44" style="enable-background:new 0 0 44 44;" xml:space="preserve">
<style type="text/css">
	.st0{fill:#FFFFFF;}
</style>
<path id="path0_stroke" class="st0" d="M34.5,29.4c0-0.2,0.1-0.3,0.1-0.3c0.1-0.1,0.1-0.1,0.2-0.1v2c0.8,0,1.6-0.6,1.6-1.6H34.5z
	 M34.9,29H9.1v2h25.7V29z M9.1,29c0.1,0,0.1,0,0.2,0.1c0.1,0.1,0.1,0.2,0.1,0.3h-2c0,1,0.8,1.6,1.6,1.6V29z M9.5,29.4V14.6h-2v14.9
	H9.5z M9.5,14.6c0,0.2-0.1,0.3-0.1,0.3C9.3,15,9.2,15,9.1,15v-2c-0.8,0-1.6,0.6-1.6,1.6H9.5z M9.1,15h25.7v-2H9.1V15z M34.9,15
	c-0.1,0-0.1,0-0.2-0.1c-0.1-0.1-0.1-0.2-0.1-0.3h2c0-1-0.8-1.6-1.6-1.6V15z M34.5,14.6v14.9h2V14.6H34.5z"/>
<path id="path1_fill" class="st0" d="M12.3,18.9c0-0.6,0.4-1,1-1h2.9c0.6,0,1,0.4,1,1v2.4c0,0.6-0.4,1-1,1h-2.9c-0.6,0-1-0.4-1-1
	V18.9z"/>
<path id="path2_fill" class="st0" d="M12.6,27.3h-0.9c-0.2,0-0.4-0.2-0.4-0.4s0.2-0.4,0.4-0.4h0.9c0.2,0,0.4,0.2,0.4,0.4
	S12.9,27.3,12.6,27.3"/>
<path id="path2_fill_1_" class="st0" d="M14.8,27.3h-0.9c-0.2,0-0.4-0.2-0.4-0.4s0.2-0.4,0.4-0.4h0.9c0.2,0,0.4,0.2,0.4,0.4
	S15.1,27.3,14.8,27.3"/>
<path id="path2_fill_2_" class="st0" d="M17.1,27.3h-0.9c-0.2,0-0.4-0.2-0.4-0.4s0.2-0.4,0.4-0.4h0.9c0.2,0,0.4,0.2,0.4,0.4
	S17.3,27.3,17.1,27.3"/>
<path id="path2_fill_3_" class="st0" d="M21.1,27.3h-0.9c-0.2,0-0.4-0.2-0.4-0.4s0.2-0.4,0.4-0.4h0.9c0.2,0,0.4,0.2,0.4,0.4
	S21.3,27.3,21.1,27.3"/>
<path id="path2_fill_4_" class="st0" d="M23.3,27.3h-0.9c-0.2,0-0.4-0.2-0.4-0.4s0.2-0.4,0.4-0.4h0.9c0.2,0,0.4,0.2,0.4,0.4
	S23.5,27.3,23.3,27.3"/>
<path id="path2_fill_5_" class="st0" d="M25.5,27.3h-0.9c-0.2,0-0.4-0.2-0.4-0.4s0.2-0.4,0.4-0.4h0.9c0.2,0,0.4,0.2,0.4,0.4
	S25.7,27.3,25.5,27.3"/>
<path id="path2_fill_6_" class="st0" d="M28.1,27.3h-0.9c-0.2,0-0.4-0.2-0.4-0.4s0.2-0.4,0.4-0.4h0.9c0.2,0,0.4,0.2,0.4,0.4
	S28.3,27.3,28.1,27.3"/>
<path id="path2_fill_7_" class="st0" d="M30.3,27.3h-0.9c-0.2,0-0.4-0.2-0.4-0.4s0.2-0.4,0.4-0.4h0.9c0.2,0,0.4,0.2,0.4,0.4
	S30.5,27.3,30.3,27.3"/>
<path id="path2_fill_8_" class="st0" d="M32.5,27.3h-0.9c-0.2,0-0.4-0.2-0.4-0.4s0.2-0.4,0.4-0.4h0.9c0.2,0,0.4,0.2,0.4,0.4
	S32.7,27.3,32.5,27.3"/>
</svg>
