<svg width="22" height="22" viewBox="0 0 22 22" version="1.1" xmlns="http://www.w3.org/2000/svg" xmlns:xlink="http://www.w3.org/1999/xlink">
<title>Icon : Edit</title>
<desc>Created using Figma</desc>
<g id="Canvas" transform="translate(8593 4772)">
<g id="Icon : Edit">
<g id="Stroke 82">
<use xlink:href="#path0_stroke" transform="translate(-8592 -4771)" fill="#E66B48"/>
</g>
<g id="Stroke 84">
<use xlink:href="#path1_stroke" transform="translate(-8581.95 -4766.55)" fill="#E66B48"/>
</g>
</g>
</g>
<defs>
<path id="path0_stroke" d="M 20 5.67496L 20.7075 6.38168C 20.8953 6.1937 21.0005 5.93872 21 5.67301C 20.9995 5.40731 20.8932 5.15273 20.7047 4.96548L 20 5.67496ZM 14.2869 0L 14.9916 -0.709473C 14.6006 -1.09791 13.9689 -1.09668 13.5794 -0.706727L 14.2869 0ZM 1.05704 13.244L 0.349551 12.5373C 0.199981 12.687 0.101771 12.8804 0.0690564 13.0895L 1.05704 13.244ZM 0 20L -0.98798 19.8454C -1.03745 20.1616 -0.932623 20.4823 -0.705998 20.7082C -0.479373 20.9341 -0.158318 21.0379 0.157675 20.9875L 0 20ZM 7.47765 19.6257L 20.7075 6.38168L 19.2925 4.96823L 6.06268 18.2123L 7.47765 19.6257ZM 20.7047 4.96548L 14.9916 -0.709473L 13.5821 0.709473L 19.2953 6.38443L 20.7047 4.96548ZM 13.5794 -0.706727L 0.349551 12.5373L 1.76452 13.9508L 14.9944 0.706727L 13.5794 -0.706727ZM 0.0690564 13.0895L -0.98798 19.8454L 0.98798 20.1546L 2.04502 13.3986L 0.0690564 13.0895ZM 0.157675 20.9875L 6.92784 19.9065L 6.61249 17.9315L -0.157675 19.0125L 0.157675 20.9875Z"/>
<path id="path1_stroke" d="M 0.706117 -0.708095C 0.315047 -1.09807 -0.318117 -1.09719 -0.708095 -0.706117C -1.09807 -0.315047 -1.09719 0.318117 -0.706117 0.708095L 0.706117 -0.708095ZM 4.54397 5.94351C 4.93504 6.33349 5.5682 6.33261 5.95818 5.94154C 6.34816 5.55047 6.34727 4.9173 5.9562 4.52732L 4.54397 5.94351ZM -0.706117 0.708095L 4.54397 5.94351L 5.9562 4.52732L 0.706117 -0.708095L -0.706117 0.708095Z"/>
</defs>
</svg>
