<?xml version="1.0" encoding="utf-8"?>
<!-- Generator: Adobe Illustrator 22.0.0, SVG Export Plug-In . SVG Version: 6.00 Build 0)  -->
<svg version="1.1" id="Layer_1" xmlns="http://www.w3.org/2000/svg" xmlns:xlink="http://www.w3.org/1999/xlink" x="0px" y="0px"
	 viewBox="0 0 44 44" style="enable-background:new 0 0 44 44;" xml:space="preserve">
<style type="text/css">
	.st0{fill:#FFFFFF;}
</style>
<title>Icon : Credit-card2</title>
<desc>Created using Figma</desc>
<g id="Canvas" transform="translate(9062 4910)">
	<g id="Icon_:_Credit-card2">
		<g id="Stroke_419">
			<g transform="translate(-9061 -4909)">
				<path id="path0_stroke" class="st0" d="M-9027.5-4880.6c0-0.2,0.1-0.3,0.1-0.3c0.1-0.1,0.1-0.1,0.2-0.1v2c0.8,0,1.6-0.6,1.6-1.6
					H-9027.5z M-9027.1-4881h-25.7v2h25.7V-4881z M-9052.9-4881c0.1,0,0.1,0,0.2,0.1c0.1,0.1,0.1,0.2,0.1,0.3h-2
					c0,1,0.8,1.6,1.6,1.6V-4881z M-9052.5-4880.6v-14.9h-2v14.9H-9052.5z M-9052.5-4895.4c0,0.2-0.1,0.3-0.1,0.3
					c-0.1,0.1-0.1,0.1-0.2,0.1v-2c-0.8,0-1.6,0.6-1.6,1.6H-9052.5z M-9052.9-4895h25.7v-2h-25.7V-4895z M-9027.1-4895
					c-0.1,0-0.1,0-0.2-0.1c-0.1-0.1-0.1-0.2-0.1-0.3h2c0-1-0.8-1.6-1.6-1.6V-4895z M-9027.5-4895.4v14.9h2v-14.9H-9027.5z"/>
			</g>
		</g>
		<g id="Rectangle">
			<g transform="translate(-9057.22 -4905.11)">
				<path id="path1_fill" class="st0" d="M-9049.7-4891.1c0-0.6,0.4-1,1-1h2.9c0.6,0,1,0.4,1,1v2.4c0,0.6-0.4,1-1,1h-2.9
					c-0.6,0-1-0.4-1-1V-4891.1z"/>
			</g>
		</g>
		<g id="Numbers">
			<g transform="translate(-9058.22 -4896.56)">
				<path id="path2_fill" class="st0" d="M-9049.4-4882.7h-0.9c-0.2,0-0.4-0.2-0.4-0.4c0-0.2,0.2-0.4,0.4-0.4h0.9
					c0.2,0,0.4,0.2,0.4,0.4C-9048.9-4882.9-9049.1-4882.7-9049.4-4882.7"/>
			</g>
		</g>
		<g id="Numbers_1_">
			<g transform="translate(-9056 -4896.56)">
				<path id="path2_fill_1_" class="st0" d="M-9047.2-4882.7h-0.9c-0.2,0-0.4-0.2-0.4-0.4c0-0.2,0.2-0.4,0.4-0.4h0.9
					c0.2,0,0.4,0.2,0.4,0.4C-9046.7-4882.9-9046.9-4882.7-9047.2-4882.7"/>
			</g>
		</g>
		<g id="Numbers_2_">
			<g transform="translate(-9053.78 -4896.56)">
				<path id="path2_fill_2_" class="st0" d="M-9044.9-4882.7h-0.9c-0.2,0-0.4-0.2-0.4-0.4c0-0.2,0.2-0.4,0.4-0.4h0.9
					c0.2,0,0.4,0.2,0.4,0.4C-9044.5-4882.9-9044.7-4882.7-9044.9-4882.7"/>
			</g>
		</g>
		<g id="Numbers_3_">
			<g transform="translate(-9049.78 -4896.56)">
				<path id="path2_fill_3_" class="st0" d="M-9040.9-4882.7h-0.9c-0.2,0-0.4-0.2-0.4-0.4c0-0.2,0.2-0.4,0.4-0.4h0.9
					c0.2,0,0.4,0.2,0.4,0.4C-9040.5-4882.9-9040.7-4882.7-9040.9-4882.7"/>
			</g>
		</g>
		<g id="Numbers_4_">
			<g transform="translate(-9047.56 -4896.56)">
				<path id="path2_fill_4_" class="st0" d="M-9038.7-4882.7h-0.9c-0.2,0-0.4-0.2-0.4-0.4c0-0.2,0.2-0.4,0.4-0.4h0.9
					c0.2,0,0.4,0.2,0.4,0.4C-9038.3-4882.9-9038.5-4882.7-9038.7-4882.7"/>
			</g>
		</g>
		<g id="Numbers_5_">
			<g transform="translate(-9045.33 -4896.56)">
				<path id="path2_fill_5_" class="st0" d="M-9036.5-4882.7h-0.9c-0.2,0-0.4-0.2-0.4-0.4c0-0.2,0.2-0.4,0.4-0.4h0.9
					c0.2,0,0.4,0.2,0.4,0.4C-9036.1-4882.9-9036.3-4882.7-9036.5-4882.7"/>
			</g>
		</g>
		<g id="Numbers_6_">
			<g transform="translate(-9042.78 -4896.56)">
				<path id="path2_fill_6_" class="st0" d="M-9033.9-4882.7h-0.9c-0.2,0-0.4-0.2-0.4-0.4c0-0.2,0.2-0.4,0.4-0.4h0.9
					c0.2,0,0.4,0.2,0.4,0.4C-9033.5-4882.9-9033.7-4882.7-9033.9-4882.7"/>
			</g>
		</g>
		<g id="Numbers_7_">
			<g transform="translate(-9040.56 -4896.56)">
				<path id="path2_fill_7_" class="st0" d="M-9031.7-4882.7h-0.9c-0.2,0-0.4-0.2-0.4-0.4c0-0.2,0.2-0.4,0.4-0.4h0.9
					c0.2,0,0.4,0.2,0.4,0.4C-9031.3-4882.9-9031.5-4882.7-9031.7-4882.7"/>
			</g>
		</g>
		<g id="numbers">
			<g transform="translate(-9038.33 -4896.56)">
				<path id="path2_fill_8_" class="st0" d="M-9029.5-4882.7h-0.9c-0.2,0-0.4-0.2-0.4-0.4c0-0.2,0.2-0.4,0.4-0.4h0.9
					c0.2,0,0.4,0.2,0.4,0.4C-9029.1-4882.9-9029.3-4882.7-9029.5-4882.7"/>
			</g>
		</g>
	</g>
</g>
</svg>
