<?xml version="1.0" encoding="utf-8"?>
<!-- Generator: Adobe Illustrator 22.0.0, SVG Export Plug-In . SVG Version: 6.00 Build 0)  -->
<svg version="1.1" id="Layer_1" xmlns="http://www.w3.org/2000/svg" xmlns:xlink="http://www.w3.org/1999/xlink" x="0px" y="0px"
	 viewBox="0 0 44 44" style="enable-background:new 0 0 44 44;" xml:space="preserve">
<style type="text/css">
	.st0{fill:#E66B48;}
</style>
<path id="path0_stroke" class="st0" d="M40.4,32.9c0-0.3,0.1-0.4,0.1-0.4c0.1-0.1,0.1-0.1,0.3-0.1v2.9c1.2,0,2.4-0.9,2.4-2.4H40.4z
	 M41,32.3H3v2.9h37.8v-2.9H41z M3,32.3c0.1,0,0.1,0,0.3,0.1c0.1,0.1,0.1,0.3,0.1,0.4H0.5c0,1.5,1.2,2.4,2.4,2.4v-2.9H3z M3.6,32.9
	V11.1H0.7V33h2.9V32.9z M3.6,11.1c0,0.3-0.1,0.4-0.1,0.4c-0.1,0.1-0.3,0.1-0.4,0.1V8.8c-1.2,0-2.4,0.9-2.4,2.4H3.6z M3,11.7h37.8
	V8.8H3V11.7z M41,11.7c-0.1,0-0.1,0-0.3-0.1c-0.1-0.1-0.1-0.3-0.1-0.4h2.9c0-1.5-1.2-2.4-2.4-2.4v2.9H41z M40.4,11.1V33h2.9V11.1
	H40.4z"/>
<path id="path1_fill" class="st0" d="M7.7,17.4c0-0.9,0.6-1.5,1.5-1.5h4.3c0.9,0,1.5,0.6,1.5,1.5V21c0,0.9-0.6,1.5-1.5,1.5H9.2
	c-0.9,0-1.5-0.6-1.5-1.5C7.7,21,7.7,17.4,7.7,17.4z"/>
<path id="path2_fill" class="st0" d="M8.2,29.8H6.8c-0.3,0-0.6-0.3-0.6-0.6s0.3-0.6,0.6-0.6h1.3c0.3,0,0.6,0.3,0.6,0.6
	S8.6,29.8,8.2,29.8"/>
<path id="path2_fill_1_" class="st0" d="M11.4,29.8h-1.3c-0.3,0-0.6-0.3-0.6-0.6s0.3-0.6,0.6-0.6h1.3c0.3,0,0.6,0.3,0.6,0.6
	S11.8,29.8,11.4,29.8"/>
<path id="path2_fill_2_" class="st0" d="M14.8,29.8h-1.3c-0.3,0-0.6-0.3-0.6-0.6s0.3-0.6,0.6-0.6h1.3c0.3,0,0.6,0.3,0.6,0.6
	S15.1,29.8,14.8,29.8"/>
<path id="path2_fill_3_" class="st0" d="M20.7,29.8h-1.3c-0.3,0-0.6-0.3-0.6-0.6s0.3-0.6,0.6-0.6h1.3c0.3,0,0.6,0.3,0.6,0.6
	S21,29.8,20.7,29.8"/>
<path id="path2_fill_4_" class="st0" d="M23.9,29.8h-1.3c-0.3,0-0.6-0.3-0.6-0.6s0.3-0.6,0.6-0.6h1.3c0.3,0,0.6,0.3,0.6,0.6
	S24.2,29.8,23.9,29.8"/>
<path id="path2_fill_5_" class="st0" d="M27.2,29.8h-1.3c-0.3,0-0.6-0.3-0.6-0.6s0.3-0.6,0.6-0.6h1.3c0.3,0,0.6,0.3,0.6,0.6
	S27.4,29.8,27.2,29.8"/>
<path id="path2_fill_6_" class="st0" d="M31,29.8h-1.3c-0.3,0-0.6-0.3-0.6-0.6s0.3-0.6,0.6-0.6H31c0.3,0,0.6,0.3,0.6,0.6
	S31.3,29.8,31,29.8"/>
<path id="path2_fill_7_" class="st0" d="M34.2,29.8h-1.3c-0.3,0-0.6-0.3-0.6-0.6s0.3-0.6,0.6-0.6h1.3c0.3,0,0.6,0.3,0.6,0.6
	S34.5,29.8,34.2,29.8"/>
<path id="path2_fill_8_" class="st0" d="M37.5,29.8h-1.3c-0.3,0-0.6-0.3-0.6-0.6s0.3-0.6,0.6-0.6h1.3c0.3,0,0.6,0.3,0.6,0.6
	S37.8,29.8,37.5,29.8"/>
</svg>
