<?xml version="1.0" encoding="utf-8"?>
<!-- Generator: Adobe Illustrator 21.1.0, SVG Export Plug-In . SVG Version: 6.00 Build 0)  -->
<svg version="1.1" id="Layer_1" xmlns="http://www.w3.org/2000/svg" xmlns:xlink="http://www.w3.org/1999/xlink" x="0px" y="0px"
	 viewBox="0 0 48 48" style="enable-background:new 0 0 48 48;" xml:space="preserve">
<style type="text/css">
	.st0{fill:#FFFFFF;}
</style>
<path id="path0_fill" class="st0" d="M29.9,23.8c1.3-1.4,2.1-3.3,2.1-5.3c0-4.4-3.6-8-8-8s-8,3.6-8,8s3.6,8,8,8c1.6,0,3-0.5,4.2-1.2
	c4.4,1.6,7.3,5.6,7.7,10.2H12c0.3-3.1,1.7-6,4.1-8.1c0.4-0.4,0.5-1,0.1-1.4c-0.4-0.4-1-0.5-1.4-0.1c-3,2.7-4.8,6.6-4.8,10.6
	c0,0.6,0.4,1,1,1h26c0.6,0,1-0.4,1-1C38,31,34.8,26.1,29.9,23.8z M18,18.5c0-3.3,2.7-6,6-6s6,2.7,6,6s-2.7,6-6,6S18,21.8,18,18.5z"
	/>
</svg>
