<?xml version="1.0" encoding="utf-8"?>
<!-- Generator: Adobe Illustrator 21.1.0, SVG Export Plug-In . SVG Version: 6.00 Build 0)  -->
<svg version="1.1" id="Layer_1" xmlns="http://www.w3.org/2000/svg" xmlns:xlink="http://www.w3.org/1999/xlink" x="0px" y="0px"
	 viewBox="0 0 133 47.8" style="enable-background:new 0 0 133 47.8;" xml:space="preserve">
<style type="text/css">
	.st0{fill:#FFFFFF;}
</style>
<path class="st0" d="M67.1,24.5c0,1.8-1.3,3.1-3,3.1c-1.7,0-3-1.3-3-3.1c0-1.8,1.3-3.1,3-3.1C65.8,21.4,67.1,22.7,67.1,24.5z
	 M65.7,24.5c0-1.2-0.8-1.8-1.6-1.8c-0.9,0-1.6,0.6-1.6,1.8c0,1.2,0.8,1.9,1.6,1.9C64.9,26.4,65.7,25.7,65.7,24.5z"/>
<path class="st0" d="M73.2,27.4v-5.8h1.3v0.7c0.3-0.6,1.1-0.9,1.7-0.9c0.8,0,1.4,0.3,1.8,1c0.5-0.8,1.1-1,1.9-1
	c1.1,0,2.1,0.7,2.1,2.2v3.8h-1.3v-3.6c0-0.7-0.3-1.2-1.1-1.2c-0.7,0-1.2,0.6-1.2,1.3v3.5h-1.4v-3.6c0-0.7-0.3-1.2-1.1-1.2
	c-0.7,0-1.2,0.6-1.2,1.3v3.5H73.2z"/>
<path class="st0" d="M89.9,27.4h-1.4v-5.8h1.4v0.8c0.4-0.7,1.1-0.9,1.7-0.9c1.4,0,2.1,1,2.1,2.3v3.7h-1.4V24c0-0.7-0.3-1.3-1.2-1.3
	c-0.8,0-1.2,0.6-1.2,1.4V27.4z"/>
<path class="st0" d="M100.9,18.6c0.5,0,0.9,0.4,0.9,0.9s-0.4,0.9-0.9,0.9c-0.5,0-0.9-0.4-0.9-0.9S100.4,18.6,100.9,18.6z
	 M100.2,27.4v-5.8h1.4v5.8H100.2z"/>
<path class="st0" d="M108.9,25.5c0,0.5,0.4,1,1.2,1c0.6,0,0.9-0.3,0.9-0.7c0-0.3-0.2-0.6-0.7-0.6l-0.9-0.2c-1-0.2-1.6-0.9-1.6-1.7
	c0-1,0.9-1.9,2.1-1.9c1.6,0,2.2,1.1,2.3,1.6l-1.2,0.3c0-0.3-0.3-0.9-1.1-0.9c-0.5,0-0.8,0.3-0.8,0.7c0,0.3,0.2,0.5,0.6,0.6l0.9,0.2
	c1.1,0.2,1.7,0.9,1.7,1.8c0,0.9-0.7,1.9-2.2,1.9c-1.7,0-2.3-1.1-2.4-1.8L108.9,25.5z"/>
<path class="st0" d="M119.1,18.6c0.5,0,0.9,0.4,0.9,0.9s-0.4,0.9-0.9,0.9c-0.5,0-0.9-0.4-0.9-0.9S118.6,18.6,119.1,18.6z
	 M118.4,27.4v-5.8h1.4v5.8H118.4z"/>
<path class="st0" d="M127.1,25.5c0,0.5,0.4,1,1.2,1c0.6,0,0.9-0.3,0.9-0.7c0-0.3-0.2-0.6-0.7-0.6l-0.9-0.2c-1-0.2-1.6-0.9-1.6-1.7
	c0-1,0.9-1.9,2.1-1.9c1.6,0,2.2,1.1,2.3,1.6l-1.2,0.3c0-0.3-0.3-0.9-1.1-0.9c-0.5,0-0.8,0.3-0.8,0.7c0,0.3,0.2,0.5,0.6,0.6l0.9,0.2
	c1.1,0.2,1.7,0.9,1.7,1.8c0,0.9-0.7,1.9-2.2,1.9c-1.7,0-2.3-1.1-2.4-1.8L127.1,25.5z"/>
<path class="st0" d="M22.3,21.6h25c1.4,0,2.5,1.1,2.5,2.5v0.1c0,1.4-1.1,2.5-2.5,2.5h-25c-1.4,0-2.5-1.1-2.5-2.5v-0.1
	C19.8,22.7,21,21.6,22.3,21.6z"/>
<path class="st0" d="M43.1,28.7c-2,8.6-9.7,15-19,15c-10.8,0-19.5-8.7-19.5-19.5c0-10.8,8.7-19.5,19.5-19.5c9.2,0,16.9,6.4,19,15h1
	c-2.1-9.2-10.2-16-20-16c-11.3,0-20.5,9.2-20.5,20.5c0,11.3,9.2,20.5,20.5,20.5c9.8,0,17.9-6.8,20-16H43.1z"/>
</svg>
