<?xml version="1.0" encoding="utf-8"?>
<!-- Generator: Adobe Illustrator 22.0.0, SVG Export Plug-In . SVG Version: 6.00 Build 0)  -->
<svg version="1.1" id="Layer_1" xmlns="http://www.w3.org/2000/svg" xmlns:xlink="http://www.w3.org/1999/xlink" x="0px" y="0px"
	 viewBox="0 0 133 47.8" style="enable-background:new 0 0 133 47.8;" xml:space="preserve">
<style type="text/css">
	.st0{fill:#FFFFFF;}
</style>
<path id="path0_fill" class="st0" d="M92.3,35c0-0.4,0.3-0.7,0.8-0.7c0.5,0,0.8,0.3,0.8,0.7H92.3z M94,35.7
	c-0.1,0.3-0.3,0.6-0.8,0.6c-0.5,0-0.9-0.4-0.9-0.9h2.2c0,0,0-0.1,0-0.2c0-0.9-0.5-1.5-1.4-1.5c-0.7,0-1.4,0.6-1.4,1.5
	c0,1,0.7,1.6,1.5,1.6c0.7,0,1.1-0.4,1.3-0.9L94,35.7z M97.4,35.3c0-0.6,0.3-1,0.9-1c0.5,0,0.8,0.4,0.8,1c0,0.6-0.3,1.1-0.8,1.1
	C97.7,36.3,97.4,35.9,97.4,35.3z M99.1,36.3c0,0.2,0,0.3,0,0.4h0.6c0,0,0-0.3,0-0.5v-3.9h-0.6v1.9c-0.1-0.2-0.4-0.5-0.9-0.5
	c-0.8,0-1.4,0.7-1.4,1.5c0,0.9,0.5,1.5,1.4,1.5C98.7,36.8,99,36.6,99.1,36.3L99.1,36.3z M104.4,36.4c0,0.1,0,0.3,0,0.4h0.5
	c0-0.1,0-0.3,0-0.5v-2.4h-0.6v1.8c0,0.4-0.2,0.7-0.7,0.7c-0.5,0-0.7-0.4-0.7-0.8v-1.8h-0.6v1.8c0,0.7,0.4,1.2,1.1,1.2
	C103.8,36.8,104.2,36.7,104.4,36.4z M108.9,34.2c0.5,0,0.7,0.3,0.8,0.6l0.5-0.2c-0.1-0.4-0.5-0.9-1.3-0.9c-0.8,0-1.5,0.6-1.5,1.5
	c0,0.9,0.6,1.6,1.5,1.6c0.8,0,1.2-0.5,1.3-0.9l-0.5-0.2c-0.1,0.2-0.3,0.6-0.8,0.6c-0.5,0-0.9-0.4-0.9-1
	C108,34.6,108.4,34.2,108.9,34.2z M112.5,35.9c0,0.5,0.4,0.9,1,0.9c0.5,0,0.8-0.3,0.9-0.5c0,0.2,0,0.3,0,0.4h0.6c0-0.1,0-0.2,0-0.5
	v-1.5c0-0.6-0.3-1.1-1.2-1.1c-0.6,0-1.1,0.4-1.2,0.9l0.5,0.1c0-0.3,0.3-0.6,0.7-0.6c0.4,0,0.6,0.2,0.6,0.5c0,0.1,0,0.2-0.2,0.2
	l-0.8,0.1C112.9,35.1,112.5,35.4,112.5,35.9z M113.5,36.3c-0.3,0-0.5-0.2-0.5-0.4c0-0.3,0.2-0.4,0.4-0.4l0.9-0.1v0.1
	C114.4,36.1,114,36.3,113.5,36.3z M118.7,37.3c0,0,0.1,0,0.2,0c0.2,0,0.3,0.1,0.3,0.2c0,0.1-0.1,0.2-0.3,0.2c-0.2,0-0.4-0.1-0.4-0.2
	l-0.2,0.3c0.1,0.1,0.4,0.3,0.7,0.3c0.5,0,0.7-0.2,0.7-0.5c0-0.3-0.2-0.5-0.6-0.5l0.1-0.2c0.6-0.1,0.9-0.5,1.1-0.9l-0.5-0.2
	c-0.1,0.2-0.3,0.6-0.8,0.6c-0.5,0-0.9-0.4-0.9-1c0-0.7,0.4-1,0.9-1c0.5,0,0.7,0.3,0.8,0.6l0.5-0.2c-0.1-0.4-0.5-0.9-1.3-0.9
	c-0.8,0-1.5,0.6-1.5,1.5c0,0.8,0.5,1.4,1.3,1.5l-0.2,0.3L118.7,37.3z M122.5,35.9c0,0.5,0.4,0.9,1,0.9c0.5,0,0.8-0.3,0.9-0.5
	c0,0.2,0,0.3,0,0.4h0.6c0-0.1,0-0.2,0-0.5v-1.5c0-0.6-0.3-1.1-1.2-1.1c-0.6,0-1.1,0.4-1.2,0.9l0.5,0.1c0-0.3,0.3-0.6,0.7-0.6
	c0.4,0,0.6,0.2,0.6,0.5c0,0.1,0,0.2-0.2,0.2l-0.8,0.1C122.9,35.1,122.5,35.4,122.5,35.9z M123.5,36.3c-0.3,0-0.5-0.2-0.5-0.4
	c0-0.3,0.2-0.4,0.4-0.4l0.9-0.1v0.1C124.4,36.1,124,36.3,123.5,36.3z M124.7,32.6h-0.4c0,0.2-0.1,0.3-0.2,0.3c-0.1,0-0.1,0-0.2-0.1
	l-0.1-0.1c-0.1-0.1-0.2-0.1-0.4-0.1c-0.3,0-0.6,0.2-0.6,0.7v0.1h0.4c0-0.2,0.1-0.3,0.2-0.3c0.1,0,0.1,0,0.2,0.1l0.1,0.1
	c0.1,0.1,0.2,0.1,0.4,0.1C124.5,33.4,124.7,33.2,124.7,32.6L124.7,32.6z M128.9,36.3c-0.5,0-0.9-0.4-0.9-1c0-0.7,0.4-1,0.9-1
	s0.9,0.4,0.9,1C129.8,35.9,129.4,36.3,128.9,36.3z M128.9,33.7c-0.9,0-1.5,0.7-1.5,1.5c0,0.9,0.6,1.6,1.5,1.6s1.5-0.7,1.5-1.6
	C130.4,34.4,129.8,33.7,128.9,33.7z"/>
<path id="path2_fill" class="st0" d="M20.9,20.7h25.8c1.7,0,3.1,1.4,3.1,3.2s-1.4,3.2-3.1,3.2H20.9c-1.7,0-3.1-1.4-3.1-3.2
	S19.2,20.7,20.9,20.7z"/>
<path class="st0" d="M42.5,27.7c-1.8,9.2-9.8,16.2-19.4,16.2c-10.9,0-19.8-9-19.8-20s8.9-20,19.8-20c9.6,0,17.7,7,19.4,16.2h1.2
	C41.9,10.2,33.4,2.7,23,2.7c-11.6,0-21,9.5-21,21.2c0,11.7,9.4,21.2,21,21.2c10.3,0,18.9-7.5,20.7-17.4H42.5z"/>
<path id="path4_fill" class="st0" d="M66.5,24.3c0,1.8-1.3,3.2-3,3.2c-1.7,0-3-1.3-3-3.2c0-1.8,1.3-3.2,3-3.2
	C65.2,21.1,66.5,22.5,66.5,24.3z M65.1,24.3c0-1.2-0.8-1.8-1.6-1.8c-0.9,0-1.6,0.6-1.6,1.8c0,1.2,0.8,1.9,1.6,1.9
	C64.3,26.2,65.1,25.5,65.1,24.3z"/>
<path id="path5_fill" class="st0" d="M72.8,27.3v-6h1.3v0.7c0.3-0.6,1.1-0.9,1.7-0.9c0.8,0,1.4,0.3,1.8,1c0.5-0.8,1.1-1,1.9-1
	c1.1,0,2.1,0.7,2.1,2.3v3.9h-1.3v-3.7c0-0.7-0.3-1.2-1.1-1.2c-0.7,0-1.2,0.6-1.2,1.3v3.6h-1.4v-3.7c0-0.7-0.3-1.2-1.1-1.2
	c-0.7,0-1.2,0.6-1.2,1.3v3.6H72.8z"/>
<path id="path6_fill" class="st0" d="M89.6,27.3h-1.4v-6h1.4v0.8c0.4-0.7,1.1-0.9,1.7-0.9c1.4,0,2.1,1,2.1,2.4v3.8h-1.4v-3.6
	c0-0.7-0.3-1.3-1.2-1.3c-0.8,0-1.2,0.6-1.2,1.4V27.3z"/>
<path id="path7_fill" class="st0" d="M100.8,18.3c0.5,0,0.9,0.4,0.9,0.9c0,0.5-0.4,0.9-0.9,0.9s-0.9-0.4-0.9-0.9
	C99.9,18.7,100.3,18.3,100.8,18.3z M100.1,27.3v-6h1.4v6H100.1z"/>
<path id="path8_fill" class="st0" d="M108.9,25.3c0,0.5,0.4,1,1.2,1c0.6,0,0.9-0.3,0.9-0.7c0-0.3-0.2-0.6-0.7-0.6l-0.9-0.2
	c-1-0.2-1.6-0.9-1.6-1.7c0-1,0.9-1.9,2.1-1.9c1.6,0,2.2,1.1,2.3,1.6l-1.2,0.3c0-0.3-0.3-0.9-1.1-0.9c-0.5,0-0.8,0.3-0.8,0.7
	c0,0.3,0.2,0.5,0.6,0.6l0.9,0.2c1.1,0.2,1.7,0.9,1.7,1.8c0,0.9-0.7,1.9-2.2,1.9c-1.7,0-2.3-1.1-2.4-1.8L108.9,25.3z"/>
<path id="path9_fill" class="st0" d="M119.4,18.3c0.5,0,0.9,0.4,0.9,0.9c0,0.5-0.4,0.9-0.9,0.9c-0.5,0-0.9-0.4-0.9-0.9
	C118.5,18.7,118.9,18.3,119.4,18.3z M118.7,27.3v-6h1.4v6H118.7z"/>
<path id="path10_fill" class="st0" d="M127.5,25.3c0,0.5,0.4,1,1.2,1c0.6,0,0.9-0.3,0.9-0.7c0-0.3-0.2-0.6-0.7-0.6l-0.9-0.2
	c-1-0.2-1.6-0.9-1.6-1.7c0-1,0.9-1.9,2.1-1.9c1.6,0,2.2,1.1,2.3,1.6l-1.2,0.3c0-0.3-0.3-0.9-1.1-0.9c-0.5,0-0.8,0.3-0.8,0.7
	c0,0.3,0.2,0.5,0.6,0.6l0.9,0.2c1.1,0.2,1.7,0.9,1.7,1.8c0,0.9-0.7,1.9-2.2,1.9c-1.7,0-2.3-1.1-2.4-1.8L127.5,25.3z"/>
</svg>
